<?xml version="1.0"?>
<svg width="261" height="258" xmlns="http://www.w3.org/2000/svg" xmlns:svg="http://www.w3.org/2000/svg">
 <g>
  <title>Layer 1</title>
  <path id="svg_4" d="m121.690002,10.92c12.300003,-2.6 25.410004,0.59 35.649994,7.73c13.559998,9.300001 22.5,24.15 27.020004,39.74c3.130005,10.520004 3.850006,21.550003 3.669998,32.470001c2.350006,1.229996 4.680008,3.550003 4.080002,6.449997c-0.320007,2.260002 -2.460007,3.5 -4.080002,4.810005c-0.069992,37.040001 -0.009995,74.090004 -0.029999,111.129997c-2.669998,0 -5.330002,0 -8,0c-0.020004,-37.029999 0.029999,-74.070007 -0.020004,-111.099998c-1.919998,-1.270004 -4.279999,-2.790001 -4.259995,-5.400002c-0.389999,-2.839996 2.209991,-4.660004 4.259995,-6.050003c0.699997,-17.919998 -2.800003,-36.559998 -13.119995,-51.519997c-7.759995,-11.6 -20.369995,-20.9 -34.699997,-21.440001c-12.270004,-0.68 -24.050003,5.41 -32.270004,14.24c-14.580002,15.709999 -19.830002,37.939999 -18.870003,58.899998c1.830002,1.300003 3.780006,2.82 3.960007,5.25c0.269997,2.68 -2.040001,4.410004 -3.950005,5.800003c-0.07,37.109993 -0.010002,74.209999 -0.029999,111.32c-2.669998,0 -5.330002,0 -8,0c-0.010002,-36.990005 0.019997,-73.979996 -0.010002,-110.980003c-2.290001,-1.209999 -4.739998,-3.169998 -4.5,-6.059998c0.020004,-2.720001 2.440002,-4.330002 4.490005,-5.610001c-0.650002,-19.470001 3.449997,-39.639999 14.75,-55.809998c7.969994,-11.630001 19.909996,-21.090001 33.959999,-23.870001z" fill="#ff0000"/>
  <path id="svg_5" d="m25.5,82.25c3.67,0 7.330002,0 11,0c0,43.669998 0.009998,87.330002 0,131c-3.669998,0 -7.33,0 -11,0c-0.01,-43.669998 0,-87.330002 0,-131z" fill="#ff0000"/>
  <path id="svg_6" d="m40.5,82.260002c0.619999,-0.010002 1.869999,-0.020004 2.490002,-0.020004c0.019997,43.670006 0.009998,87.340004 0.009998,131.010002c-0.630001,0 -1.869999,0 -2.5,0c-0.009998,-43.660004 0,-87.330002 0,-130.989998z" fill="#ff0000"/>
  <path id="svg_7" d="m48.75,82.260002c0.830002,-0.010002 1.669998,-0.010002 2.5,0c0,43.659996 0,87.32 0,130.989998c-0.630001,0 -1.869999,0 -2.5,0c0,-43.669998 0,-87.330002 0,-130.989998z" fill="#ff0000"/>
  <path id="svg_8" d="m58.25,82.25c2.580002,0 5.16,0 7.75,0c0,43.669998 0,87.330002 0,131c-2.59,0 -5.169998,0 -7.75,0c0,-43.669998 0,-87.330002 0,-131z" fill="#ff0000"/>
  <path id="svg_9" d="m94.5,82.25c0.690002,0 2.059998,0 2.75,0c0,43.669998 0,87.330002 0,131c-0.690002,0 -2.059998,0 -2.75,0c-0.010002,-43.660004 0,-87.330002 0,-131z" fill="#ff0000"/>
  <path id="svg_10" d="m102.5,82.25c0.690002,0 2.059998,0 2.75,0c0,43.669998 0,87.330002 0,131c-0.690002,0 -2.059998,0 -2.75,0c-0.010002,-43.660004 0,-87.330002 0,-131z" fill="#ff0000"/>
  <path id="svg_11" d="m110.5,82.25c0.690002,0 2.059998,0 2.75,0c0,43.669998 0,87.330002 0,131c-0.690002,0 -2.059998,0 -2.75,0c-0.010002,-43.660004 0,-87.330002 0,-131z" fill="#ff0000"/>
  <path id="svg_12" d="m118.5,82.25c0.910004,0 1.830002,0 2.75,0.010002c0,43.659996 0,87.32 0,130.989998c-0.690002,0 -2.059998,0 -2.75,0c-0.010002,-43.660004 0,-87.330002 0,-131z" fill="#ff0000"/>
  <path id="svg_13" d="m126.5,82.25c0.910004,0 1.830002,0 2.75,0.010002c0,43.659996 0,87.32 0,130.989998c-0.690002,0 -2.059998,0 -2.75,0c-0.010002,-43.660004 0,-87.330002 0,-131z" fill="#ff0000"/>
  <path id="svg_14" d="m135,82.25c2.669998,0 5.330002,0 8,0c0,43.669998 0,87.330002 0,131c-2.669998,0 -5.330002,0 -8,0c0,-43.669998 0,-87.330002 0,-131z" fill="#ff0000"/>
  <path id="svg_15" d="m150,82.25c2.669998,0 5.330002,0 8,0c0,43.669998 0,87.330002 0,131c-2.669998,0 -5.330002,0 -8,0c0,-43.669998 0,-87.330002 0,-131z" fill="#ff0000"/>
  <path id="svg_16" d="m171.75,82.25c0.690002,0 2.059998,0 2.75,0c0,43.669998 0.009995,87.339996 0,131c-0.690002,0 -2.059998,0 -2.75,0c0,-43.669998 0,-87.330002 0,-131z" fill="#ff0000"/>
  <path id="svg_17" d="m195.5,82.260002c0.619995,0 1.869995,-0.020004 2.490005,-0.029999c0.019989,43.68 0.009995,87.349998 0.009995,131.019997c-0.630005,0 -1.869995,0 -2.5,0c-0.009995,-43.660004 0,-87.32 0,-130.989998z" fill="#ff0000"/>
  <path id="svg_18" d="m201.75,82.25c0.630005,0 1.869995,0 2.5,0c0,43.669998 0,87.330002 0,131c-0.630005,0 -1.869995,0 -2.5,0c0,-43.669998 0,-87.330002 0,-131z" fill="#ff0000"/>
  <path id="svg_19" d="m219.5,82.25c2.660004,0 5.330002,0 8,0c0,43.669998 0.009995,87.330002 0,131c-2.669998,0 -5.339996,0 -8,0c-0.009995,-43.669998 0,-87.330002 0,-131z" fill="#ff0000"/>
  <path id="svg_20" d="m233.75,82.25c0.630005,0 1.880005,0 2.5,0.010002c0,43.659996 0,87.32 0,130.989998c-0.630005,0 -1.869995,0 -2.5,0c0,-43.669998 0,-87.330002 0,-131z" fill="#ff0000"/>
  <path id="svg_22" d="m181.330002,94.559998c2.149994,-2.329994 7.830002,0.110001 5.619995,3.389999c-2.25,3.170006 -8.919998,-0.07 -5.619995,-3.389999z" fill="#ff0000"/>
  <path id="svg_23" d="m73.814995,94.898155c2.150002,-2.329994 7.830009,0.110001 5.620003,3.389999c-2.25,3.170006 -8.920006,-0.07 -5.620003,-3.389999z" fill="#ff0000"/>
 </g>
</svg>