<?xml version="1.0"?>
<svg width="640" height="480" xmlns="http://www.w3.org/2000/svg" xmlns:svg="http://www.w3.org/2000/svg">
 <!-- Created with SVG-edit - http://svg-edit.googlecode.com/ -->

 <g>
  <title>Layer 1</title>
  <path id="svg_4" d="m132.81723,129.283829c12.300018,-2.599991 25.410004,0.589996 35.649994,7.729996c13.559998,9.300003 22.5,24.150009 27.02002,39.740005c3.129974,10.520004 3.849976,21.550003 3.669983,32.470001c2.350006,1.229996 4.680023,3.550003 4.080017,6.449997c-0.320007,2.26001 -2.460022,3.5 -4.080017,4.810013c-0.069977,37.039993 -0.01001,74.089981 -0.029999,111.12999c-2.670013,0 -5.329987,0 -8,0c-0.019989,-37.029999 0.029999,-74.070007 -0.019989,-111.099991c-1.920013,-1.270004 -4.279999,-2.790009 -4.26001,-5.400009c-0.390015,-2.839996 2.209991,-4.660004 4.26001,-6.050003c0.699982,-17.919998 -2.800018,-36.559998 -13.119995,-51.520004c-7.76001,-11.599991 -20.370026,-20.899994 -34.700012,-21.439987c-12.27002,-0.680008 -24.049988,5.409988 -32.27002,14.23999c-14.579987,15.710007 -19.829987,37.940002 -18.869995,58.900009c1.830017,1.299988 3.780029,2.819992 3.960022,5.25c0.269989,2.679993 -2.040009,4.410004 -3.950012,5.800003c-0.070007,37.110001 -0.01001,74.210007 -0.029999,111.319992c-2.670013,0 -5.329987,0 -8,0c-0.01001,-36.98999 0.019989,-73.97998 -0.01001,-110.980011c-2.289978,-1.209991 -4.73999,-3.169983 -4.5,-6.059982c0.02002,-2.720001 2.440002,-4.330002 4.490021,-5.610001c-0.650024,-19.470001 3.449982,-39.639999 14.75,-55.809998c7.970001,-11.630005 19.909973,-21.090012 33.959991,-23.87001z" fill="#ff0000"/>
  <path id="svg_5" d="m36.627228,200.613831c3.669998,0 7.330002,0 11,0c0,43.669998 0.009995,87.330017 0,131c-3.669998,0 -7.330002,0 -11,0c-0.009995,-43.669983 0,-87.330002 0,-131z" fill="#ff0000"/>
  <path id="svg_6" d="m51.627228,200.62384c0.619995,-0.01001 1.869995,-0.020004 2.490005,-0.020004c0.019989,43.669998 0.009995,87.340012 0.009995,131.009995c-0.630005,0 -1.869995,0 -2.5,0c-0.009995,-43.660004 0,-87.330002 0,-130.98999z" fill="#ff0000"/>
  <path id="svg_7" d="m59.877228,200.62384c0.830002,-0.01001 1.669998,-0.01001 2.5,0c0,43.659988 0,87.320007 0,130.98999c-0.630005,0 -1.869995,0 -2.5,0c0,-43.669983 0,-87.330002 0,-130.98999z" fill="#ff0000"/>
  <path id="svg_8" d="m69.377228,200.613831c2.580002,0 5.160004,0 7.75,0c0,43.669998 0,87.330017 0,131c-2.589996,0 -5.169998,0 -7.75,0c0,-43.669983 0,-87.330002 0,-131z" fill="#ff0000"/>
  <path id="svg_9" d="m105.627228,200.613831c0.690002,0 2.059998,0 2.75,0c0,43.669998 0,87.330017 0,131c-0.690002,0 -2.059998,0 -2.75,0c-0.01001,-43.660004 0,-87.330002 0,-131z" fill="#ff0000"/>
  <path id="svg_10" d="m113.627228,200.613831c0.690002,0 2.059998,0 2.75,0c0,43.669998 0,87.330017 0,131c-0.690002,0 -2.059998,0 -2.75,0c-0.01001,-43.660004 0,-87.330002 0,-131z" fill="#ff0000"/>
  <path id="svg_11" d="m121.627228,200.613831c0.690002,0 2.059998,0 2.75,0c0,43.669998 0,87.330017 0,131c-0.690002,0 -2.059998,0 -2.75,0c-0.01001,-43.660004 0,-87.330002 0,-131z" fill="#ff0000"/>
  <path id="svg_12" d="m129.627228,200.613831c0.910004,0 1.829987,0 2.75,0.01001c0,43.659988 0,87.320007 0,130.98999c-0.690002,0 -2.059998,0 -2.75,0c-0.01001,-43.660004 0,-87.330002 0,-131z" fill="#ff0000"/>
  <path id="svg_13" d="m137.627228,200.613831c0.910004,0 1.829987,0 2.75,0.01001c0,43.659988 0,87.320007 0,130.98999c-0.690002,0 -2.059998,0 -2.75,0c-0.01001,-43.660004 0,-87.330002 0,-131z" fill="#ff0000"/>
  <path id="svg_14" d="m146.127228,200.613831c2.670013,0 5.329987,0 8,0c0,43.669998 0,87.330017 0,131c-2.670013,0 -5.329987,0 -8,0c0,-43.669983 0,-87.330002 0,-131z" fill="#ff0000"/>
  <path id="svg_15" d="m161.127228,200.613831c2.670013,0 5.329987,0 8,0c0,43.669998 0,87.330017 0,131c-2.670013,0 -5.329987,0 -8,0c0,-43.669983 0,-87.330002 0,-131z" fill="#ff0000"/>
  <path id="svg_16" d="m182.877228,200.613831c0.690002,0 2.059998,0 2.75,0c0,43.669998 0.01001,87.339996 0,131c-0.690002,0 -2.059998,0 -2.75,0c0,-43.669983 0,-87.330002 0,-131z" fill="#ff0000"/>
  <path id="svg_17" d="m206.627228,200.62384c0.619995,0 1.869995,-0.020004 2.490021,-0.029999c0.019958,43.679993 0.009979,87.350006 0.009979,131.019989c-0.630005,0 -1.869995,0 -2.5,0c-0.01001,-43.660004 0,-87.319992 0,-130.98999z" fill="#ff0000"/>
  <path id="svg_18" d="m212.877228,200.613831c0.630005,0 1.869995,0 2.5,0c0,43.669998 0,87.330017 0,131c-0.630005,0 -1.869995,0 -2.5,0c0,-43.669983 0,-87.330002 0,-131z" fill="#ff0000"/>
  <path id="svg_19" d="m230.627228,200.613831c2.660004,0 5.330017,0 8,0c0,43.669998 0.01001,87.330017 0,131c-2.669983,0 -5.339996,0 -8,0c-0.01001,-43.669983 0,-87.330002 0,-131z" fill="#ff0000"/>
  <path id="svg_20" d="m244.877228,200.613831c0.630005,0 1.880005,0 2.5,0.01001c0,43.659988 0,87.320007 0,130.98999c-0.630005,0 -1.869995,0 -2.5,0c0,-43.669983 0,-87.330002 0,-131z" fill="#ff0000"/>
  <path id="svg_22" d="m192.457214,212.923828c2.150024,-2.329987 7.830017,0.110001 5.620026,3.389999c-2.25,3.170013 -8.920013,-0.069992 -5.620026,-3.389999z" fill="#ff0000"/>
  <path id="svg_23" d="m84.94223,213.261978c2.149994,-2.329987 7.829987,0.110001 5.619995,3.389999c-2.25,3.170013 -8.920013,-0.069992 -5.619995,-3.389999z" fill="#ff0000"/>
  <text transform="matrix(2.273468953677422,0,0,3.0959202628563016,-307.6818300452908,-346.2818449944577) " xml:space="preserve" text-anchor="middle" font-family="Sans-serif" font-size="24" id="svg_24" y="217.239595" x="327.746065" stroke-linecap="null" stroke-linejoin="null" stroke-dasharray="null" stroke-width="0" fill="#ff0000">ONLINE MART</text>
 </g>
</svg>